<svg xmlns="http://www.w3.org/2000/svg" xmlns:xlink="http://www.w3.org/1999/xlink" width="1920" zoomAndPan="magnify" viewBox="0 0 1440 374.999991" height="500" preserveAspectRatio="xMidYMid meet" version="1.0"><defs><g/><clipPath id="fb5a2ea6e2"><rect x="0" width="1156" y="0" height="297"/></clipPath></defs><rect x="-144" width="1728" fill="#ffffff" y="-37.499999" height="449.999989" fill-opacity="1"/><rect x="-144" width="1728" fill="#ffffff" y="-37.499999" height="449.999989" fill-opacity="1"/><path fill="#607fa2" d="M 253.710938 180.804688 C 253.710938 182.644531 253.667969 184.484375 253.578125 186.324219 C 253.488281 188.164062 253.351562 190 253.171875 191.832031 C 252.992188 193.664062 252.765625 195.492188 252.496094 197.3125 C 252.226562 199.132812 251.910156 200.949219 251.550781 202.753906 C 251.191406 204.558594 250.789062 206.355469 250.34375 208.140625 C 249.894531 209.929688 249.402344 211.703125 248.871094 213.464844 C 248.335938 215.226562 247.757812 216.972656 247.136719 218.707031 C 246.519531 220.441406 245.855469 222.160156 245.152344 223.859375 C 244.445312 225.5625 243.699219 227.242188 242.914062 228.90625 C 242.125 230.574219 241.300781 232.214844 240.433594 233.839844 C 239.5625 235.464844 238.65625 237.066406 237.710938 238.644531 C 236.765625 240.222656 235.78125 241.78125 234.757812 243.3125 C 233.734375 244.839844 232.675781 246.347656 231.578125 247.824219 C 230.480469 249.304688 229.351562 250.753906 228.183594 252.179688 C 227.015625 253.601562 225.8125 254.996094 224.574219 256.359375 C 223.339844 257.726562 222.070312 259.058594 220.769531 260.359375 C 219.46875 261.660156 218.136719 262.929688 216.769531 264.167969 C 215.40625 265.402344 214.015625 266.605469 212.589844 267.773438 C 211.167969 268.941406 209.71875 270.074219 208.238281 271.171875 C 206.761719 272.269531 205.257812 273.328125 203.726562 274.351562 C 202.195312 275.375 200.640625 276.359375 199.0625 277.304688 C 197.484375 278.253906 195.882812 279.160156 194.257812 280.027344 C 192.632812 280.894531 190.992188 281.722656 189.328125 282.511719 C 187.664062 283.296875 185.980469 284.042969 184.28125 284.75 C 182.578125 285.453125 180.863281 286.117188 179.128906 286.734375 C 177.394531 287.355469 175.648438 287.933594 173.886719 288.46875 C 172.125 289.003906 170.351562 289.492188 168.566406 289.941406 C 166.78125 290.386719 164.984375 290.792969 163.179688 291.152344 C 161.375 291.511719 159.5625 291.824219 157.742188 292.09375 C 155.921875 292.367188 154.09375 292.589844 152.261719 292.769531 C 150.429688 292.953125 148.59375 293.085938 146.757812 293.175781 C 144.917969 293.269531 143.078125 293.3125 141.238281 293.3125 C 139.398438 293.3125 137.558594 293.269531 135.71875 293.175781 C 133.878906 293.085938 132.046875 292.953125 130.214844 292.769531 C 128.382812 292.589844 126.554688 292.367188 124.734375 292.09375 C 122.914062 291.824219 121.101562 291.511719 119.296875 291.152344 C 117.488281 290.792969 115.695312 290.386719 113.910156 289.941406 C 112.125 289.492188 110.351562 289.003906 108.589844 288.46875 C 106.828125 287.933594 105.078125 287.355469 103.347656 286.734375 C 101.613281 286.117188 99.894531 285.453125 98.195312 284.75 C 96.496094 284.042969 94.8125 283.296875 93.148438 282.511719 C 91.484375 281.722656 89.839844 280.894531 88.21875 280.027344 C 86.59375 279.160156 84.992188 278.253906 83.414062 277.304688 C 81.835938 276.359375 80.28125 275.375 78.75 274.351562 C 77.21875 273.328125 75.714844 272.269531 74.238281 271.171875 C 72.757812 270.074219 71.308594 268.941406 69.886719 267.773438 C 68.460938 266.605469 67.070312 265.402344 65.703125 264.167969 C 64.339844 262.929688 63.007812 261.660156 61.707031 260.359375 C 60.40625 259.058594 59.136719 257.726562 57.898438 256.359375 C 56.664062 254.996094 55.460938 253.601562 54.292969 252.179688 C 53.125 250.753906 51.992188 249.304688 50.898438 247.824219 C 49.800781 246.347656 48.742188 244.839844 47.71875 243.3125 C 46.695312 241.78125 45.710938 240.222656 44.765625 238.644531 C 43.820312 237.066406 42.910156 235.464844 42.042969 233.839844 C 41.175781 232.214844 40.347656 230.574219 39.5625 228.90625 C 38.773438 227.242188 38.03125 225.5625 37.324219 223.859375 C 36.621094 222.160156 35.957031 220.441406 35.339844 218.707031 C 34.71875 216.972656 34.140625 215.226562 33.605469 213.464844 C 33.070312 211.703125 32.582031 209.929688 32.132812 208.140625 C 31.6875 206.355469 31.285156 204.558594 30.925781 202.753906 C 30.566406 200.949219 30.25 199.132812 29.980469 197.3125 C 29.710938 195.492188 29.484375 193.664062 29.304688 191.832031 C 29.125 190 28.988281 188.164062 28.898438 186.324219 C 28.808594 184.484375 28.761719 182.644531 28.761719 180.804688 C 28.761719 178.964844 28.808594 177.121094 28.898438 175.285156 C 28.988281 173.445312 29.125 171.609375 29.304688 169.777344 C 29.484375 167.945312 29.710938 166.117188 29.980469 164.296875 C 30.25 162.472656 30.566406 160.660156 30.925781 158.855469 C 31.285156 157.050781 31.6875 155.253906 32.132812 153.46875 C 32.582031 151.679688 33.070312 149.90625 33.605469 148.144531 C 34.140625 146.382812 34.71875 144.636719 35.339844 142.902344 C 35.957031 141.167969 36.621094 139.449219 37.324219 137.75 C 38.03125 136.046875 38.773438 134.367188 39.5625 132.699219 C 40.347656 131.035156 41.175781 129.390625 42.042969 127.769531 C 42.910156 126.144531 43.820312 124.542969 44.765625 122.964844 C 45.710938 121.382812 46.695312 119.828125 47.71875 118.296875 C 48.742188 116.765625 49.800781 115.261719 50.898438 113.78125 C 51.992188 112.304688 53.125 110.851562 54.292969 109.429688 C 55.460938 108.007812 56.664062 106.613281 57.898438 105.25 C 59.136719 103.882812 60.40625 102.550781 61.707031 101.25 C 63.007812 99.945312 64.339844 98.675781 65.703125 97.441406 C 67.070312 96.203125 68.460938 95.003906 69.886719 93.835938 C 71.308594 92.664062 72.757812 91.535156 74.238281 90.4375 C 75.714844 89.339844 77.21875 88.28125 78.75 87.257812 C 80.28125 86.234375 81.835938 85.25 83.414062 84.300781 C 84.992188 83.355469 86.59375 82.449219 88.21875 81.582031 C 89.839844 80.710938 91.484375 79.886719 93.148438 79.097656 C 94.8125 78.3125 96.496094 77.566406 98.195312 76.859375 C 99.894531 76.15625 101.613281 75.492188 103.347656 74.871094 C 105.078125 74.253906 106.828125 73.675781 108.589844 73.140625 C 110.351562 72.605469 112.125 72.113281 113.910156 71.667969 C 115.695312 71.21875 117.488281 70.816406 119.296875 70.457031 C 121.101562 70.097656 122.914062 69.785156 124.734375 69.511719 C 126.554688 69.242188 128.382812 69.019531 130.214844 68.835938 C 132.046875 68.65625 133.878906 68.523438 135.71875 68.429688 C 137.558594 68.339844 139.398438 68.296875 141.238281 68.296875 C 143.078125 68.296875 144.917969 68.339844 146.757812 68.429688 C 148.59375 68.523438 150.429688 68.65625 152.261719 68.835938 C 154.09375 69.019531 155.921875 69.242188 157.742188 69.511719 C 159.5625 69.785156 161.375 70.097656 163.179688 70.457031 C 164.984375 70.816406 166.78125 71.21875 168.566406 71.667969 C 170.351562 72.113281 172.125 72.605469 173.886719 73.140625 C 175.648438 73.675781 177.394531 74.253906 179.128906 74.871094 C 180.863281 75.492188 182.578125 76.15625 184.28125 76.859375 C 185.980469 77.566406 187.664062 78.3125 189.328125 79.097656 C 190.992188 79.886719 192.632812 80.710938 194.257812 81.582031 C 195.882812 82.449219 197.484375 83.355469 199.0625 84.300781 C 200.640625 85.25 202.195312 86.234375 203.726562 87.257812 C 205.257812 88.28125 206.761719 89.339844 208.238281 90.4375 C 209.71875 91.535156 211.167969 92.664062 212.589844 93.835938 C 214.015625 95.003906 215.40625 96.203125 216.769531 97.441406 C 218.136719 98.675781 219.46875 99.945312 220.769531 101.25 C 222.070312 102.550781 223.339844 103.882812 224.574219 105.25 C 225.8125 106.613281 227.015625 108.007812 228.183594 109.429688 C 229.351562 110.851562 230.480469 112.304688 231.578125 113.78125 C 232.675781 115.261719 233.734375 116.765625 234.757812 118.296875 C 235.78125 119.828125 236.765625 121.382812 237.710938 122.964844 C 238.65625 124.542969 239.5625 126.144531 240.433594 127.769531 C 241.300781 129.390625 242.125 131.035156 242.914062 132.699219 C 243.699219 134.367188 244.445312 136.046875 245.152344 137.75 C 245.855469 139.449219 246.519531 141.167969 247.136719 142.902344 C 247.757812 144.636719 248.335938 146.382812 248.871094 148.144531 C 249.402344 149.90625 249.894531 151.679688 250.34375 153.46875 C 250.789062 155.253906 251.191406 157.050781 251.550781 158.855469 C 251.910156 160.660156 252.226562 162.472656 252.496094 164.296875 C 252.765625 166.117188 252.992188 167.945312 253.171875 169.777344 C 253.351562 171.609375 253.488281 173.445312 253.578125 175.285156 C 253.667969 177.121094 253.710938 178.964844 253.710938 180.804688 Z M 253.710938 180.804688 " fill-opacity="1" fill-rule="nonzero"/><path fill="#ffffff" d="M 206.550781 129.511719 L 222.214844 129.511719 L 206.746094 229.390625 L 192.527344 229.390625 L 184.023438 174.433594 L 176.082031 229.390625 L 161.808594 229.390625 L 145.246094 129.511719 L 160.871094 129.511719 L 168.6875 182.996094 L 175.875 129.511719 L 191.507812 129.511719 L 199.316406 182.953125 Z M 206.550781 129.511719 " fill-opacity="1" fill-rule="nonzero"/><path fill="#ffffff" d="M 123.519531 129.511719 L 139.171875 129.511719 L 123.703125 229.390625 L 109.496094 229.390625 L 100.980469 174.433594 L 93.046875 229.390625 L 78.769531 229.390625 L 62.207031 129.511719 L 77.839844 129.511719 L 85.65625 182.996094 L 92.839844 129.511719 L 108.46875 129.511719 L 116.273438 182.953125 Z M 123.519531 129.511719 " fill-opacity="1" fill-rule="nonzero"/><g transform="matrix(1, 0, 0, 1, 284, 29)"><g clip-path="url(#fb5a2ea6e2)"><g fill="#000000" fill-opacity="1"><g transform="translate(1.068098, 231.730626)"><g><path d="M 131.21875 -66.78125 L 148.25 -179.71875 L 184.171875 -179.71875 L 152.203125 0 L 115.78125 0 L 94.796875 -105.90625 L 74.0625 0 L 37.53125 0 L 5.4375 -179.71875 L 41.59375 -179.71875 L 58.515625 -66.90625 L 79.609375 -179.71875 L 110.109375 -179.71875 Z M 131.21875 -66.78125 "/></g></g></g><g fill="#000000" fill-opacity="1"><g transform="translate(190.403385, 231.730626)"><g><path d="M 107.265625 -77.765625 L 50.734375 -77.765625 L 50.734375 -30.125 L 117.640625 -30.125 L 117.640625 0 L 14.4375 0 L 14.4375 -179.71875 L 117.390625 -179.71875 L 117.390625 -149.484375 L 50.734375 -149.484375 L 50.734375 -107.015625 L 107.265625 -107.015625 Z M 107.265625 -77.765625 "/></g></g></g><g fill="#000000" fill-opacity="1"><g transform="translate(314.446384, 231.730626)"><g><path d="M 14.4375 0 L 14.4375 -179.71875 L 69.984375 -179.71875 C 88.742188 -179.71875 103 -175.539062 112.75 -167.1875 C 122.507812 -158.84375 127.390625 -146.601562 127.390625 -130.46875 C 127.390625 -121.332031 125.375 -113.472656 121.34375 -106.890625 C 117.3125 -100.304688 111.796875 -95.492188 104.796875 -92.453125 C 112.859375 -90.148438 119.070312 -85.519531 123.4375 -78.5625 C 127.800781 -71.613281 129.984375 -63.035156 129.984375 -52.828125 C 129.984375 -35.378906 125.1875 -22.210938 115.59375 -13.328125 C 106.007812 -4.441406 92.125 0 73.9375 0 Z M 50.734375 -78.140625 L 50.734375 -30.125 L 73.9375 -30.125 C 80.4375 -30.125 85.375 -32.140625 88.75 -36.171875 C 92.125 -40.203125 93.8125 -45.921875 93.8125 -53.328125 C 93.8125 -69.453125 87.96875 -77.722656 76.28125 -78.140625 Z M 50.734375 -104.546875 L 69.625 -104.546875 C 83.851562 -104.546875 90.96875 -111.910156 90.96875 -126.640625 C 90.96875 -134.785156 89.320312 -140.628906 86.03125 -144.171875 C 82.738281 -147.710938 77.390625 -149.484375 69.984375 -149.484375 L 50.734375 -149.484375 Z M 50.734375 -104.546875 "/></g></g></g><g fill="#000000" fill-opacity="1"><g transform="translate(456.26271, 231.730626)"><g><path d="M 131.21875 -66.78125 L 148.25 -179.71875 L 184.171875 -179.71875 L 152.203125 0 L 115.78125 0 L 94.796875 -105.90625 L 74.0625 0 L 37.53125 0 L 5.4375 -179.71875 L 41.59375 -179.71875 L 58.515625 -66.90625 L 79.609375 -179.71875 L 110.109375 -179.71875 Z M 131.21875 -66.78125 "/></g></g></g><g fill="#000000" fill-opacity="1"><g transform="translate(645.597997, 231.730626)"><g><path d="M 100.234375 -36.78125 L 50.734375 -36.78125 L 41.109375 0 L 2.71875 0 L 58.875 -179.71875 L 92.078125 -179.71875 L 148.609375 0 L 109.859375 0 Z M 58.625 -67.03125 L 92.203125 -67.03125 L 75.421875 -131.09375 Z M 58.625 -67.03125 "/></g></g></g><g fill="#000000" fill-opacity="1"><g transform="translate(796.547837, 231.730626)"><g><path d="M 90.359375 -47.15625 C 90.359375 -54.476562 88.484375 -60.007812 84.734375 -63.75 C 80.992188 -67.5 74.1875 -71.390625 64.3125 -75.421875 C 46.289062 -82.253906 33.328125 -90.253906 25.421875 -99.421875 C 17.523438 -108.597656 13.578125 -119.441406 13.578125 -131.953125 C 13.578125 -147.097656 18.945312 -159.253906 29.6875 -168.421875 C 40.425781 -177.597656 54.066406 -182.1875 70.609375 -182.1875 C 81.628906 -182.1875 91.457031 -179.863281 100.09375 -175.21875 C 108.738281 -170.570312 115.382812 -164.007812 120.03125 -155.53125 C 124.6875 -147.050781 127.015625 -137.421875 127.015625 -126.640625 L 90.84375 -126.640625 C 90.84375 -135.035156 89.050781 -141.429688 85.46875 -145.828125 C 81.894531 -150.234375 76.734375 -152.4375 69.984375 -152.4375 C 63.648438 -152.4375 58.710938 -150.5625 55.171875 -146.8125 C 51.640625 -143.070312 49.875 -138.035156 49.875 -131.703125 C 49.875 -126.765625 51.847656 -122.300781 55.796875 -118.3125 C 59.742188 -114.320312 66.738281 -110.1875 76.78125 -105.90625 C 94.300781 -99.570312 107.03125 -91.796875 114.96875 -82.578125 C 122.914062 -73.359375 126.890625 -61.632812 126.890625 -47.40625 C 126.890625 -31.769531 121.910156 -19.546875 111.953125 -10.734375 C 101.992188 -1.929688 88.457031 2.46875 71.34375 2.46875 C 59.738281 2.46875 49.160156 0.0820312 39.609375 -4.6875 C 30.066406 -9.457031 22.601562 -16.285156 17.21875 -25.171875 C 11.832031 -34.066406 9.140625 -44.5625 9.140625 -56.65625 L 45.546875 -56.65625 C 45.546875 -46.289062 47.5625 -38.757812 51.59375 -34.0625 C 55.625 -29.375 62.207031 -27.03125 71.34375 -27.03125 C 84.019531 -27.03125 90.359375 -33.738281 90.359375 -47.15625 Z M 90.359375 -47.15625 "/></g></g></g><g fill="#000000" fill-opacity="1"><g transform="translate(933.056849, 231.730626)"><g><path d="M 140.46875 0 L 104.296875 0 L 104.296875 -76.90625 L 50.734375 -76.90625 L 50.734375 0 L 14.4375 0 L 14.4375 -179.71875 L 50.734375 -179.71875 L 50.734375 -107.015625 L 104.296875 -107.015625 L 104.296875 -179.71875 L 140.46875 -179.71875 Z M 140.46875 0 "/></g></g></g><g fill="#000000" fill-opacity="1"><g transform="translate(1088.203171, 231.730626)"><g><path d="M 15.546875 -17.78125 C 15.546875 -23.375 17.414062 -27.976562 21.15625 -31.59375 C 24.90625 -35.21875 29.785156 -37.03125 35.796875 -37.03125 C 41.640625 -37.03125 46.492188 -35.238281 50.359375 -31.65625 C 54.222656 -28.082031 56.15625 -23.457031 56.15625 -17.78125 C 56.15625 -12.019531 54.203125 -7.390625 50.296875 -3.890625 C 46.390625 -0.390625 41.554688 1.359375 35.796875 1.359375 C 29.953125 1.359375 25.113281 -0.40625 21.28125 -3.9375 C 17.457031 -7.476562 15.546875 -12.09375 15.546875 -17.78125 Z M 15.546875 -17.78125 "/></g></g></g></g></g></svg>